<?xml version="1.0" encoding="utf-8"?>
<!-- Generator: Adobe Illustrator 15.1.0, SVG Export Plug-In . SVG Version: 6.00 Build 0)  -->
<!DOCTYPE svg PUBLIC "-//W3C//DTD SVG 1.1//EN" "http://www.w3.org/Graphics/SVG/1.1/DTD/svg11.dtd">
<svg version="1.1" xmlns="http://www.w3.org/2000/svg" xmlns:xlink="http://www.w3.org/1999/xlink" x="0px" y="0px" width="244.8px"
	 height="180px" viewBox="0 0 244.8 180" enable-background="new 0 0 244.8 180" xml:space="preserve">
<g id="Layer_1">
	<g>
		<g>
			<text transform="matrix(1 0 0 1 136.7256 40.3599)" font-family="'ArialNarrow-Bold'" font-size="9.5">1</text>
		</g>
	</g>
	<g>
		<path fill="#FFFFFF" stroke="#000000" stroke-width="0.5" d="M118.634,32.095l-19.586-8.894c0,0-1.168-0.809-2.157-0.27
			c-0.988,0.539-1.707,0.809-0.809,1.348c0.898,0.539,1.887,0.988,1.887,0.988s-4.133,1.887-2.156,3.325
			c0,0,1.707,0.179,2.425-0.629c0.719-0.809,1.438-1.797,1.438-1.797l15.633,6.828c0,0,0.898,0.54,1.168,1.168
			c0.269,0.629,0.809,1.348,0.809,1.348s0.449,0.719-0.449,1.258c-0.898,0.539-1.438,0.628-0.898,1.886
			c0.539,1.258,1.078,5.121,2.964,4.941c1.887-0.179,9.434-2.785,9.434-2.785s1.169-0.898,0.63-1.977
			c-0.54-1.078-1.617-3.863-1.617-3.863s-0.36-1.258-1.527-0.898c-1.584,0.487-3.685,0.898-3.685,0.898s-1.078-0.09-1.348-0.539
			C120.521,33.982,119.712,32.275,118.634,32.095z"/>
		<line fill="none" stroke="#000000" stroke-width="0.3" x1="97.97" y1="25.267" x2="100.036" y2="26.345"/>
	</g>
	<g>
		<g>
			<line fill="none" stroke="#000000" stroke-width="0.5" x1="130.104" y1="38.069" x2="136.205" y2="38.062"/>
		</g>
		<g>
			<polygon points="131.246,39.579 128.762,37.999 131.262,36.675 			"/>
		</g>
	</g>
</g>
<g id="Layer_2">
	<path fill="#FFFFFF" stroke="#000000" stroke-width="0.5" d="M199.026,100.591c0,0-0.391,1.367-0.547,1.641s-0.82,0-0.82,0
		s-7.383-2.109-7.578-2.109s-0.078-0.625-0.078-0.625s0.664-1.602,0.664-1.758s0.586-0.234,0.586-0.234l7.773,2.07
		C199.026,99.575,199.417,99.575,199.026,100.591z"/>
	<g>
		<g>
			<text transform="matrix(1 0 0 1 195.5723 118.3789)" font-family="'ArialNarrow-Bold'" font-size="9.5">2</text>
		</g>
	</g>
	<g>
		<g>
			<line fill="none" stroke="#000000" stroke-width="0.5" x1="197.816" y1="104.039" x2="197.825" y2="110.141"/>
		</g>
		<g>
			<polygon points="196.307,105.182 197.887,102.697 199.211,105.197 			"/>
		</g>
	</g>
</g>
<g id="Layer_3">
	<g>
		<g>
			<text transform="matrix(1 0 0 1 183.6514 177.0342)" font-family="'ArialNarrow-Bold'" font-size="9.5">3</text>
		</g>
	</g>
	<g>
		<polygon fill="#FFFFFF" stroke="#000000" stroke-width="0.5" points="186.896,157.677 186.896,152.716 180.06,149.122 
			179.2,149.435 179.2,157.286 186.271,160.841 186.896,160.724 186.896,160.06 188.263,159.903 188.224,159.122 		"/>
		<line fill="none" stroke="#000000" stroke-width="0.3" x1="186.856" y1="160.333" x2="186.896" y2="157.677"/>
		<polyline fill="none" stroke="#000000" stroke-width="0.3" points="186.036,160.802 186.075,153.106 179.2,149.669 		"/>
		<line fill="none" stroke="#000000" stroke-width="0.3" x1="186.896" y1="152.716" x2="185.919" y2="153.185"/>
	</g>
	<g>
		<g>
			<line fill="none" stroke="#000000" stroke-width="0.5" x1="185.694" y1="162.267" x2="185.703" y2="168.368"/>
		</g>
		<g>
			<polygon points="184.185,163.409 185.765,160.925 187.089,163.425 			"/>
		</g>
	</g>
</g>
<g id="Layer_4">
	<polygon fill="#FFFFFF" stroke="#000000" stroke-width="0.5" points="193.816,28.357 183.973,32.576 186.16,34.19 195.587,29.972 	
		"/>
	<g>
		<g>
			<text transform="matrix(1 0 0 1 191.0664 19.1499)" font-family="'ArialNarrow-Bold'" font-size="9.5">4</text>
		</g>
	</g>
	<g>
		<g>
			<line fill="none" stroke="#000000" stroke-width="0.5" x1="193.632" y1="26.807" x2="193.622" y2="20.706"/>
		</g>
		<g>
			<polygon points="195.142,25.665 193.562,28.149 192.237,25.649 			"/>
		</g>
	</g>
</g>
<g id="Layer_5">
	<g>
		<g>
			<text transform="matrix(1 0 0 1 159.3203 174.0244)" font-family="'ArialNarrow-Bold'" font-size="9.5">5</text>
		</g>
	</g>
	<g>
		<path fill="#FFFFFF" stroke="#000000" stroke-width="0.5" d="M171.938,155.852c0,0.936-0.738,1.691-1.648,1.691h-21.233
			c-0.912,0-1.649-0.756-1.649-1.691v-6.627c0-0.934,0.737-1.692,1.649-1.692h21.233c0.91,0,1.648,0.759,1.648,1.692V155.852z"/>
		<text transform="matrix(1 0 0 1 151.5732 153.5703)" font-family="'MyriadPro-Regular'" font-size="2.5">EXHAUST LABEL</text>
	</g>
	<g>
		<g>
			<line fill="none" stroke="#000000" stroke-width="0.5" x1="161.395" y1="159.495" x2="161.403" y2="165.597"/>
		</g>
		<g>
			<polygon points="159.885,160.638 161.465,158.153 162.789,160.653 			"/>
		</g>
	</g>
</g>
<g id="Layer_6">
	<g>
		<g>
			<text transform="matrix(1 0 0 1 4.9702 162.3457)" font-family="'ArialNarrow-Bold'" font-size="9.5">6</text>
		</g>
	</g>
	<g>
		<path fill="#FFFFFF" stroke="#000000" stroke-width="0.5" d="M28.703,159.121v0.391c0,0-0.664,0.234-1.055,0.938
			s-0.273,1.367-0.273,1.367l0.859,2.5l-0.664,0.43l-9.844-4.336l-1.68-4.375l0.469-0.625l5.625,2.461
			C22.141,157.871,25.813,157.91,28.703,159.121z"/>
		<polyline fill="none" stroke="#000000" stroke-width="0.3" points="22.141,157.871 26.398,159.512 27.375,161.816 		"/>
		<polyline fill="none" stroke="#000000" stroke-width="0.3" points="16.203,156.23 25.773,160.332 27.57,164.746 		"/>
		<line fill="none" stroke="#000000" stroke-width="0.3" x1="26.555" y1="159.59" x2="25.773" y2="160.332"/>
	</g>
	<g>
		<g>
			<line fill="none" stroke="#000000" stroke-width="0.5" x1="16.486" y1="159.254" x2="10.386" y2="159.246"/>
		</g>
		<g>
			<polygon points="15.345,160.764 17.829,159.184 15.329,157.859 			"/>
		</g>
	</g>
</g>
<g id="Layer_7">
	<g>
		<g>
			<text transform="matrix(1 0 0 1 160.1182 118.5518)" font-family="'ArialNarrow-Bold'" font-size="9.5">7</text>
		</g>
	</g>
	<g>
		<path fill="#FFFFFF" stroke="#000000" stroke-width="0.5" d="M172.875,136.008c0,0.936-0.738,1.691-1.648,1.691h-21.233
			c-0.912,0-1.649-0.756-1.649-1.691v-6.627c0-0.934,0.737-1.692,1.649-1.692h21.233c0.91,0,1.648,0.759,1.648,1.692V136.008z"/>
		<text transform="matrix(1 0 0 1 149.4639 133.5361)" font-family="'MyriadPro-Regular'" font-size="2.5">TIRE PRESSURE LABEL</text>
	</g>
	<g>
		<g>
			<line fill="none" stroke="#000000" stroke-width="0.5" x1="161.456" y1="126.264" x2="161.446" y2="120.162"/>
		</g>
		<g>
			<polygon points="162.966,125.121 161.386,127.605 160.062,125.105 			"/>
		</g>
	</g>
</g>
<g id="Layer_Reference">
	<g>
		<path fill="none" stroke="#000000" stroke-width="0.3" d="M37.086,16.192c0,0,11.932,0,14.255,17.825l0.911,1.15
			c0,0,18.256-12.65,34.356-17.106"/>
		<path fill="none" stroke="#000000" stroke-width="0.3" d="M51.342,34.017c0.384,1.869,4.936,24.293,4.936,24.293l15.166,8.194
			l0.935-0.503l0.431-9.056c0,0,2.875-3.45,4.384,1.581l-0.144,10.709c0,0,7.619,3.666,9.847,5.319"/>
		<path fill="none" stroke="#000000" stroke-width="0.3" d="M81.95,30.114l-0.804-0.409l-3.306-7.906c0,0,2.516,0.934,13.009-3.881"
			/>
		<polyline fill="none" stroke="#000000" stroke-width="0.3" points="98.54,39.623 96.096,37.323 85.42,31.883 		"/>
		<polyline fill="none" stroke="#000000" stroke-width="0.3" points="52.252,35.167 55.702,44.511 56.996,45.805 64.184,41.636 
			76.977,37.18 84.883,39.911 96.096,37.323 		"/>
		<ellipse fill="none" stroke="#000000" stroke-width="0.3" cx="92.574" cy="37.323" rx="1.653" ry="0.431"/>
		<path fill="none" stroke="#000000" stroke-width="0.3" d="M54.121,48.68l1.869,0.719l2.156-1.006l11.212-6.181l3.881-1.15
			l2.875,1.438l2.156-0.719h1.15l2.516-1.006c0,0,1.078-1.582-0.791-2.156"/>
		<ellipse fill="none" stroke="#000000" stroke-width="0.3" cx="40.177" cy="29.705" rx="4.744" ry="6.038"/>
		<ellipse fill="none" stroke="#000000" stroke-width="0.3" cx="39.746" cy="29.525" rx="4.025" ry="5.139"/>
		<ellipse fill="none" stroke="#000000" stroke-width="0.3" cx="29.504" cy="33.693" rx="4.205" ry="5.283"/>
		<ellipse fill="none" stroke="#000000" stroke-width="0.3" cx="30.043" cy="33.801" rx="4.816" ry="6.038"/>
		<path fill="none" stroke="#000000" stroke-width="0.3" d="M30.115,47.529c-1.15-4.456,0.862-5.894,0.862-5.894l15.669-7.044
			c0,0,2.156-1.006,2.587,0.432s1.294,4.6,1.294,4.6s0.144,3.738-1.582,4.457c-1.725,0.719-16.962,7.116-16.962,7.116"/>
		<path fill="none" stroke="#000000" stroke-width="0.3" d="M24.508,42.93c0,0,7.332,1.293,8.769,15.094
			c0,0-0.288,11.5-4.025,16.531"/>
		<path fill="none" stroke="#000000" stroke-width="0.3" d="M32.846,54.501c0.287-1.294,1.006-1.509,1.006-1.509l15.669-6.9
			c0,0,2.156-1.222,2.875,0.791c0.719,2.012,0.935,3.666,0.935,3.666s0,1.509-1.294,2.803c-1.294,1.293-15.741,7.188-15.741,7.188
			s-2.587,0.431-3.019-0.647"/>
		<path fill="none" stroke="#000000" stroke-width="0.3" d="M32.846,63.342l16.531-7.188c0,0,3.953-2.443,6.9,2.156
			c0,0,1.222,1.438,0.359,1.582c-0.863,0.144-1.797-0.359-1.797-0.359s0.144,0.503-0.144,0.934c-0.287,0.432-2.084,0.791-1.15,2.731
			"/>
		<polyline fill="none" stroke="#000000" stroke-width="0.3" points="56.206,58.598 51.605,56.154 50.456,55.723 		"/>
		<polyline fill="none" stroke="#000000" stroke-width="0.3" points="61.452,68.301 49.233,60.611 48.012,60.898 45.855,59.964 
			45.784,59.029 47.508,58.167 47.293,57.017 		"/>
		<path fill="none" stroke="#000000" stroke-width="0.3" d="M49.233,60.611c0,0,0.863-1.438,1.653-1.653
			c0.791-0.215,1.15-0.862,1.15-0.862l1.006-0.359l2.084,1.94"/>
		<polyline fill="none" stroke="#000000" stroke-width="0.3" points="47.508,58.167 48.155,58.023 49.809,57.592 50.24,58.095 
			51.246,57.879 52.037,58.095 		"/>
		<polyline fill="none" stroke="#000000" stroke-width="0.3" points="46.143,58.958 47.652,59.604 48.299,60.754 		"/>
		<path fill="none" stroke="#000000" stroke-width="0.3" d="M47.868,58.167l1.438,1.078l0.359,0.647c0,0,1.006,1.078,2.875,0"/>
		<path fill="none" stroke="#000000" stroke-width="0.3" d="M52.468,62.623c0,0-0.072-2.228,0.072-2.731
			c0.144-0.503-0.719-1.366-0.719-1.366"/>
		<path fill="none" stroke="#000000" stroke-width="0.3" d="M56.277,58.311c0,0-1.653,0.216-1.797,0.719"/>
		<polyline fill="none" stroke="#000000" stroke-width="0.3" points="50.24,58.095 48.874,58.958 49.305,59.245 47.652,59.604 		"/>
		<path fill="none" stroke="#000000" stroke-width="0.3" d="M44.346,58.526c0,0,1.222,2.228,0.287,3.091
			c-0.934,0.862-1.797,0.934-1.797,0.934l-1.438-0.575l-8.625,3.45"/>
		<polyline fill="none" stroke="#000000" stroke-width="0.3" points="32.127,67.295 43.555,63.342 42.405,62.408 		"/>
		<path fill="none" stroke="#000000" stroke-width="0.3" d="M43.555,63.342l0.719,1.294c0,0,4.959,0.288,6.613,1.797l4.456-1.94"/>
		<ellipse fill="none" stroke="#000000" stroke-width="0.3" cx="45.208" cy="69.128" rx="1.653" ry="1.114"/>
		<path fill="none" stroke="#000000" stroke-width="0.3" d="M43.663,75.129c4.308,0,7.798-1.995,7.798-4.456
			c0-2.461-3.491-4.457-7.798-4.457c-4.307,0-7.798,1.995-7.798,4.457c0,0.514,0.152,1.008,0.433,1.468L43.663,75.129z"/>
		<path fill="none" stroke="#000000" stroke-width="0.3" d="M46.803,68.499c1.47,0.382,2.502,1.276,2.502,2.318
			c0,1.389-1.834,2.516-4.097,2.516s-4.097-1.126-4.097-2.516c0-1.023,0.996-1.905,2.425-2.297"/>
		<path fill="none" stroke="#000000" stroke-width="0.3" d="M47.024,69.552c0.895,0.285,1.49,0.793,1.49,1.373
			c0,0.894-1.416,1.617-3.163,1.617c-1.746,0-3.162-0.724-3.162-1.617c0-0.509,0.459-0.962,1.177-1.259"/>
		<polyline fill="none" stroke="#000000" stroke-width="0.3" points="43.555,69.128 42.98,70.458 43.052,72.183 		"/>
		<polyline fill="none" stroke="#000000" stroke-width="0.3" points="46.79,68.805 47.581,70.314 47.652,71.967 		"/>
		<path fill="none" stroke="#000000" stroke-width="0.3" d="M47.724,68.732c0,0,3.378,0,3.378,3.234"/>
		<path fill="none" stroke="#000000" stroke-width="0.3" d="M41.112,70.817l0.359,3.163c-3.81-3.522,0.503-4.744,0.503-4.744"/>
		<line fill="none" stroke="#000000" stroke-width="0.3" x1="50.024" y1="68.014" x2="56.062" y2="65.067"/>
		<line fill="none" stroke="#000000" stroke-width="0.3" x1="51.318" y1="69.595" x2="57.427" y2="65.714"/>
		<path fill="none" stroke="#000000" stroke-width="0.3" d="M58.721,59.676l6.972,5.462c0,0,0.791,0.719,0.144,0.935
			c-0.646,0.216-4.097,1.006-4.384,2.228l-0.359,3.019"/>
		<path fill="none" stroke="#000000" stroke-width="0.3" d="M30.833,71.464l16.172,7.475c0,0,2.372,0.575,3.306,0.288
			c0.935-0.288,2.516-1.006,2.516-1.006s5.678,3.881,9.056,4.025c0,0,2.516,0.144,6.541-2.156"/>
		<path fill="none" stroke="#000000" stroke-width="0.3" d="M31.912,68.086l1.438-0.575l1.078,0.575l2.372-0.863
			c0,0,0.215-1.006,1.438-0.144l6.037-2.444"/>
		<path fill="none" stroke="#000000" stroke-width="0.3" d="M55.415,53.567l2.588,0.791c0,0,0.862-0.215,1.438-0.359
			c0.104-0.025,0.182-0.112,0.273-0.168C81.854,40.194,97.97,39.623,99.402,39.623c1.438,0,0.288,1.006,0.288,1.006
			s-16.1-0.144-39.963,14.519l-1.006,0.575l-3.307-0.862"/>
		<path fill="none" stroke="#000000" stroke-width="0.3" d="M54.624,49.83l0.935,0.862l0.215,1.582l2.084,0.575l2.803-1.509
			c0,0,0.216-2.013-2.516-2.947"/>
		<path fill="none" stroke="#000000" stroke-width="0.3" d="M55.99,49.398c0,0,0.503,0.287,0.575,1.006
			c0.072,0.719,0.072,0.719,0.072,0.719l1.293,0.863l1.725-1.078v-0.359l-0.791-1.15L57.93,49.47l-1.438,0.647"/>
		<path fill="none" stroke="#000000" stroke-width="0.3" d="M57.858,52.848l0.935,1.366c0,0,0.647,1.366-0.072,1.509"/>
		<ellipse fill="none" stroke="#000000" stroke-width="0.3" cx="55.379" cy="47.997" rx="0.467" ry="0.611"/>
		<path fill="none" stroke="#000000" stroke-width="0.3" d="M19.333,27.261c0,0,17.753-5.678,22.928-4.097
			c0,0,3.881-0.432,9.487,13.44"/>
		<path fill="none" stroke="#000000" stroke-width="0.3" d="M22.208,23.883c0,0,16.675-6.397,22.712-1.725
			c0,0,4.097,2.659,6.181,10.853"/>
		<path fill="none" stroke="#000000" stroke-width="0.3" d="M22.496,20.145c0,0,16.315-5.822,22.856,2.516"/>
		<path fill="none" stroke="#000000" stroke-width="0.3" d="M53.331,37.251l16.387-9.056c0,0,1.15-0.575,2.013-0.072
			c0.862,0.503,3.09,1.869,3.09,1.869"/>
		<path fill="none" stroke="#000000" stroke-width="0.3" d="M79.924,33.514l6.972,3.45l3.45-1.294c0,0,1.365-0.215,1.581-0.503"/>
		<polyline fill="none" stroke="#000000" stroke-width="0.3" points="83.217,32.423 83.446,32.723 85.674,34.305 86.608,36.676 		
			"/>
		<line fill="none" stroke="#000000" stroke-width="0.3" x1="81.146" y1="29.705" x2="81.723" y2="30.461"/>
		<ellipse fill="none" stroke="#000000" stroke-width="0.3" cx="87.399" cy="34.808" rx="1.15" ry="0.719"/>
		<polyline fill="none" stroke="#000000" stroke-width="0.3" points="72.233,23.595 72.377,24.529 72.09,28.051 		"/>
		<line fill="none" stroke="#000000" stroke-width="0.3" x1="70.149" y1="24.529" x2="70.149" y2="27.62"/>
		<polyline fill="none" stroke="#000000" stroke-width="0.3" points="78.127,37.754 74.03,38.904 73.456,39.479 71.946,40.126 
			73.24,41.061 73.958,40.342 74.605,41.276 75.827,40.989 76.762,41.492 78.271,41.779 		"/>
		<path fill="none" stroke="#000000" stroke-width="0.3" d="M81.937,40.773c0,0-2.228-1.222-3.306-1.51l0.144,2.372"/>
		<line fill="none" stroke="#000000" stroke-width="0.3" x1="76.905" y1="37.97" x2="77.193" y2="41.636"/>
		<line fill="none" stroke="#000000" stroke-width="0.3" x1="74.965" y1="38.689" x2="75.827" y2="40.989"/>
		<path fill="none" stroke="#000000" stroke-width="0.3" d="M78.63,39.264c0,0-0.935-0.359-1.509,0.288"/>
		<line fill="none" stroke="#000000" stroke-width="0.3" x1="86.465" y1="36.245" x2="90.777" y2="34.664"/>
		<line fill="none" stroke="#000000" stroke-width="0.3" x1="73.958" y1="40.342" x2="73.671" y2="39.048"/>
		<path fill="none" stroke="#000000" stroke-width="0.3" d="M74.174,57.808c0,0,0-2.084,0.575-1.94
			c0.575,0.144,1.438,0.862,1.438,1.797c0,0.934,0.216,0.934-0.503,1.006C74.965,58.742,74.174,57.808,74.174,57.808z"/>
		<path fill="none" stroke="#000000" stroke-width="0.3" d="M74.749,55.867c0,0-0.575,1.006,1.438,1.797"/>
		<path fill="none" stroke="#000000" stroke-width="0.3" d="M72.377,66.001c0,0-0.359,1.581,0.791,2.587s2.947,3.091,3.881,0.647"/>
		<path fill="none" stroke="#000000" stroke-width="0.3" d="M64.615,74.195l2.659-1.438l4.169-6.253c0,0,0.144,2.803,1.653,4.025
			c1.509,1.222,2.875,1.941,3.809,0.719l-0.144-1.869"/>
		<path fill="none" stroke="#000000" stroke-width="0.3" d="M65.836,66.073c0,0,1.797-0.647,4.6,1.725"/>
		<path fill="none" stroke="#000000" stroke-width="0.3" d="M71.083,68.086c0,0,0.071,3.713,3.594,4.887
			c1.725,0.575,2.516-1.509,2.516-1.509s0.862,0.431,1.006,1.222c0.144,0.791-1.509,2.66-3.306,3.234v0.863l-6.469,3.306
			c0,0-1.869-0.431-2.444-2.013c-0.575-1.581-1.582-7.043-4.528-9.775"/>
		<path fill="none" stroke="#000000" stroke-width="0.3" d="M82.224,71.823c0,0,1.294,1.294-1.653,3.163
			c-2.947,1.869-9.775,6.181-9.775,6.181l-0.791-2.084c0,0-0.144-3.953,0.719-4.815c0.862-0.863,2.013-2.3,2.013-2.3"/>
		<polyline fill="none" stroke="#000000" stroke-width="0.3" points="71.515,78.508 72.162,76.423 72.377,74.77 72.449,74.267 
			73.743,72.686 		"/>
		<path fill="none" stroke="#000000" stroke-width="0.3" d="M74.893,75.92l-2.444-1.653c0,0-1.582,0.791-1.869,0.359"/>
		<path fill="none" stroke="#000000" stroke-width="0.3" d="M73.096,80.592c0,0,11.931-8.625,14.303-5.534
			c2.372,3.091,1.869,2.444,1.869,2.444"/>
		<line fill="none" stroke="#000000" stroke-width="0.3" x1="61.74" y1="67.798" x2="67.921" y2="71.895"/>
		<line fill="none" stroke="#000000" stroke-width="0.3" x1="64.758" y1="81.814" x2="57.211" y2="77.789"/>
		<path fill="none" stroke="#000000" stroke-width="0.3" d="M61.596,80.089c0,0,3.306-2.084,4.815-1.15"/>
		<path fill="none" stroke="#000000" stroke-width="0.3" d="M69.934,76.926c0,0,1.653,0.359,1.94-0.072s0.863-0.503,0.863-0.503
			l1.365,0.934"/>
		<path fill="none" stroke="#000000" stroke-width="0.3" d="M56.708,78.723l-1.581-0.862c0,0-0.863,0.144-0.575,0.503
			s1.438,0.863,1.438,0.863S56.708,79.227,56.708,78.723z"/>
		<path fill="none" stroke="#000000" stroke-width="0.3" d="M62.961,80.808c0,0,2.084-1.294,2.372-1.294s0.862,0.216,0.862,0.216
			l1.15,0.791"/>
		<path fill="none" stroke="#000000" stroke-width="0.3" d="M59.727,67.151c0,0,1.006,3.163,0,3.45"/>
		<path fill="none" stroke="#000000" stroke-width="0.3" d="M55.63,77.07l-1.006-2.731c-0.144-0.862,0.647-2.084,0.647-2.084
			s3.666-2.228,4.456-1.653c0.791,0.575,2.156,0.719,2.156,0.719l0.647,0.072c0,0,1.509,2.3,0.431,3.019s-5.75,3.378-5.75,3.378
			l-1.869-0.575c0,0-0.934-0.288-2.228,1.15"/>
		<line fill="none" stroke="#000000" stroke-width="0.3" x1="57.93" y1="51.986" x2="57.858" y2="52.561"/>
		<path fill="none" stroke="#000000" stroke-width="0.3" d="M54.552,74.626c0,0-1.869,1.438-0.359,2.875"/>
		<polyline fill="none" stroke="#000000" stroke-width="0.3" points="53.762,75.705 48.299,79.011 33.421,71.104 		"/>
		<path fill="none" stroke="#000000" stroke-width="0.3" d="M42.98,70.458c0,0,0.862,0.863,2.156,0.863
			c1.293,0,2.012-0.288,2.444-1.006"/>
		<path fill="none" stroke="#000000" stroke-width="0.3" d="M36.943,72.398c0,0-1.509-2.013,2.372-3.738
			c3.881-1.725,7.188-0.791,9.918,0.431"/>
		<line fill="none" stroke="#000000" stroke-width="0.3" x1="49.305" y1="70.817" x2="49.305" y2="73.62"/>
		<path fill="none" stroke="#000000" stroke-width="0.3" d="M50.24,72.973c0,0,0.216-0.359-0.862-1.006"/>
		<path fill="none" stroke="#000000" stroke-width="0.3" d="M34.427,68.086c0,0,1.581,1.222,0.288,2.012
			c-1.294,0.791-2.156,1.653-1.078,2.66"/>
		<line fill="none" stroke="#000000" stroke-width="0.3" x1="31.624" y1="69.092" x2="33.637" y2="70.529"/>
		<polyline fill="none" stroke="#000000" stroke-width="0.3" points="32.559,64.564 43.771,60.18 44.849,61.114 		"/>
		<line fill="none" stroke="#000000" stroke-width="0.3" x1="43.268" y1="58.598" x2="43.771" y2="60.18"/>
		<polyline fill="none" stroke="#000000" stroke-width="0.3" points="51.246,57.879 51.749,57.232 53.043,57.736 		"/>
		<line fill="none" stroke="#000000" stroke-width="0.3" x1="49.377" y1="56.154" x2="51.749" y2="57.232"/>
		<polyline fill="none" stroke="#000000" stroke-width="0.3" points="53.977,46.164 55.055,45.301 56.996,45.805 53.905,47.314 		
			"/>
		<line fill="none" stroke="#000000" stroke-width="0.3" x1="93.892" y1="28.746" x2="73.383" y2="33.25"/>
	</g>
	<g>
		<g>
			<path fill="none" stroke="#000000" stroke-width="0.3" d="M204.18,31.273c7.842,2.883,11.025,4.11,15.625,5.938"/>
			<path fill="none" stroke="#000000" stroke-width="0.3" d="M153.711,5.648c0,0,10.938,9.375,13.75,12.188h0.938l-0.313-3.125
				l-1.563-0.938c0,0,0.938-5.469,2.5-7.031s6.25-0.625,7.344,4.219c0,0,0.156,2.031-2.656,3.438c0,0,0.313,4.531,1.25,6.25
				c0,0,0.991,0.339,9.922,3.594"/>
			<path fill="none" stroke="#000000" stroke-width="0.3" d="M168.086,14.711c0,0,4.531,0.781,6.25-0.625"/>
			<path fill="none" stroke="#000000" stroke-width="0.3" d="M171.289,21.82c0,0,5.391,3.359,6.172,6.797s0.156,4.219,0.156,4.219
				l0.625,1.563l-8.75,2.188v-1.563l-11.094,4.219c0,0-0.781-0.469,0.156-1.094s6.719-3.125,6.719-3.125l0.938-1.406
				c0,0,7.188-8.125,4.688-12.344l-3.438-3.438l7.5,2.813"/>
			<path fill="none" stroke="#000000" stroke-width="0.3" d="M173.398,23.383c0,0,1.563,5.703-0.938,8.359l2.031,1.406l-5,1.875"/>
			<line fill="none" stroke="#000000" stroke-width="0.3" x1="165.273" y1="35.023" x2="172.461" y2="31.742"/>
			<line fill="none" stroke="#000000" stroke-width="0.3" x1="173.633" y1="23.539" x2="183.868" y2="28.514"/>
			<path fill="none" stroke="#000000" stroke-width="0.3" d="M202.773,38.617c0,0,15,8.203,17.188,10.078"/>
			<path fill="none" stroke="#000000" stroke-width="0.3" d="M188.203,50.609c0,0-0.664-1.68-0.898-1.992s-2.422-1.797-2.422-1.797
				l-0.313-0.781l-1.016-0.313l-2.734,1.406l0.859,0.859l3.086-1.211"/>
			<path fill="none" stroke="#000000" stroke-width="0.3" d="M189.336,50.961c0,0,0.938-5,5.547-5.859c0,0,6.367,0.781,7.305,1.719"
				/>
			<path fill="none" stroke="#000000" stroke-width="0.3" d="M180.326,38.409l-2.396,0.911c0,0-5.234,0.156-8.672,1.484
				l-9.453,3.594"/>
			<path fill="none" stroke="#000000" stroke-width="0.3" d="M161.758,45.57c0,0,6.719-2.813,10.234-3.828s5.547-0.859,5.547-0.859
				l2.813-0.82"/>
			<polyline fill="none" stroke="#000000" stroke-width="0.3" points="174.961,39.477 174.414,36.977 177.07,34.633 			"/>
			<polyline fill="none" stroke="#000000" stroke-width="0.3" points="175.586,39.398 179.805,34.008 177.773,31.664 			"/>
			<polyline fill="none" stroke="#000000" stroke-width="0.3" points="177.461,28.617 180.664,29.008 182.306,29.867 			"/>
			<polyline fill="none" stroke="#000000" stroke-width="0.3" points="182.852,27.914 182.07,28.773 180.664,29.008 			"/>
			<line fill="none" stroke="#000000" stroke-width="0.3" x1="176.523" y1="26.586" x2="181.133" y2="27.289"/>
			<path fill="none" stroke="#000000" stroke-width="0.3" d="M192.148,51.977c0,0-0.625-4.688,5.156-6.484"/>
			<path fill="none" stroke="#000000" stroke-width="0.3" d="M198.242,45.805c0,0,0.234-1.797,0.625-1.875s1.328-0.703,1.172,2.344
				c-0.196,3.843-4.688,4.766-4.688,4.766"/>
			<path fill="none" stroke="#000000" stroke-width="0.3" d="M196.211,44.008c0,0-0.195,1.055,0.938,1.172
				c0.549,0.057,1.484-2.5,1.484-2.5"/>
			<line fill="none" stroke="#000000" stroke-width="0.3" x1="187.617" y1="49.008" x2="190.977" y2="47.406"/>
			<path fill="none" stroke="#000000" stroke-width="0.3" d="M166.523,46.039c9.609,2.344,27.813,10.234,27.813,10.234l0.625-1.406
				c-7.813-4.375-24.688-7.969-24.688-7.969l-3.984-0.938l-3.906,1.797l-0.625,0.547l-2.656,1.016"/>
			<polyline fill="none" stroke="#000000" stroke-width="0.3" points="173.164,44.164 176.211,44.008 182.891,46.039 			"/>
			<path fill="none" stroke="#000000" stroke-width="0.3" d="M196.211,44.008c0,0,0.313-2.969,2.734-1.172s6.094,4.141,6.094,4.141
				s2.5-0.156,2.578,1.172c0,0,1.406-0.078,1.641,0.391s0.625,1.016,0.625,1.016l5.938,3.672l1.172-0.391
				c0,0-0.625-1.25,1.094-0.469s4.609,2.656,4.609,2.656"/>
			<path fill="none" stroke="#000000" stroke-width="0.3" d="M165.273,44.398l1.641,0.234c0,0,2.578-1.016,2.891-0.469
				s0.938,1.094,0.938,1.094l1.406-0.938l0.625-0.078l8.387-3.333"/>
			<path fill="none" stroke="#000000" stroke-width="0.3" d="M180.82,47.133c0,0-2.656-2.266-4.453-1.953s-3.203,1.406-3.203,1.406
				l-0.859,0.625"/>
			<path fill="none" stroke="#000000" stroke-width="0.3" d="M170.742,45.258c0,0-0.156,1.172-1.719,1.406"/>
			<path fill="none" stroke="#000000" stroke-width="0.3" d="M172.93,46.977c0,0,1.641,0.547,2.422,0.078s1.797-0.391,1.797-0.391
				l1.797,0.781l13.203,4.531l1.094-0.234l3.125-0.938c0,0,0.078-1.25,0.781-1.094s1.797,0.469,1.797,0.469l0.548-1.666
				c0,0,0.272-0.99,0.897-1.068s1.992-0.547,1.992-0.547l1.328,0.234l1.328-0.156"/>
			<path fill="none" stroke="#000000" stroke-width="0.3" d="M200.039,46.273c0,0-3.125,0.391-4.688,4.766"/>
			<path fill="none" stroke="#000000" stroke-width="0.3" d="M194.961,54.867l3.438-1.094h1.797l2.969,1.875l3.828,0.703h0.781
				c0,0,0.703-3.594,4.141-5.313"/>
			<path fill="none" stroke="#000000" stroke-width="0.3" d="M194.336,56.273c-2.813,0.156-3.047,2.734-3.047,2.734
				s-2.578-0.938-3.438-0.703s-1.797,0.234-1.797,0.234s-2.813-1.797-1.25-2.266s2.344-0.938,2.344-0.938l1.016-0.313l2.422-0.313"
				/>
			<path fill="none" stroke="#000000" stroke-width="0.3" d="M160.039,48.852c0,0,18.828,3.906,24.375,8.125"/>
			<path fill="none" stroke="#000000" stroke-width="0.3" d="M177.227,45.336c0,0,0.234,0.469-0.078,1.328"/>
			<path fill="none" stroke="#000000" stroke-width="0.3" d="M159.102,41.898c0,0,7.109-2.734,10.078-6.563"/>
			<path fill="none" stroke="#000000" stroke-width="0.3" d="M173.477,39.555c0,0-0.469-1.563-1.172-1.172s-0.703,0.391-0.703,0.391
				l0.234,1.172"/>
			<ellipse fill="none" stroke="#000000" stroke-width="0.3" cx="205.391" cy="47.602" rx="1.445" ry="0.547"/>
			<path fill="none" stroke="#000000" stroke-width="0.3" d="M203.945,47.602c0,0-0.859,0.938,0.156,1.484s4.453,0.234,2.734-1.484"
				/>
			<line fill="none" stroke="#000000" stroke-width="0.3" x1="206.523" y1="60.414" x2="207.773" y2="56.352"/>
			<path fill="none" stroke="#000000" stroke-width="0.3" d="M202.852,50.961l0.234,2.656c0,0,3.203,1.641,6.172-0.703l0.313-2.969"
				/>
			<polyline fill="none" stroke="#000000" stroke-width="0.3" points="200.195,53.773 201.523,53.07 203.086,53.617 			"/>
			<line fill="none" stroke="#000000" stroke-width="0.3" x1="208.789" y1="45.023" x2="210.508" y2="44.32"/>
			<line fill="none" stroke="#000000" stroke-width="0.3" x1="210.039" y1="45.883" x2="211.992" y2="45.258"/>
			<line fill="none" stroke="#000000" stroke-width="0.3" x1="201.289" y1="40.648" x2="203.086" y2="39.945"/>
			<line fill="none" stroke="#000000" stroke-width="0.3" x1="200.117" y1="39.867" x2="201.367" y2="39.164"/>
			<polyline fill="none" stroke="#000000" stroke-width="0.3" points="200.352,38.617 201.367,39.164 201.758,39.789 
				203.086,39.945 210.508,44.32 210.898,44.789 211.992,45.258 219.18,49.398 219.492,50.18 221.367,51.195 			"/>
			<path fill="none" stroke="#000000" stroke-width="0.3" d="M199.414,39.555c0,0,17.344,10.625,23.438,13.516"/>
			<path fill="none" stroke="#000000" stroke-width="0.3" d="M192.148,51.977l5.938,1.875l0.859-3.672l4.375,1.016
				c0,0,3.438,0,4.531-0.156s2.031-1.484,2.031-1.484"/>
		</g>
		<line fill="none" stroke="#000000" stroke-width="0.3" x1="184.414" y1="34.867" x2="185.898" y2="46.664"/>
		<line fill="none" stroke="#000000" stroke-width="0.3" x1="195.039" y1="32.367" x2="193.711" y2="42.523"/>
	</g>
	<g>
		<path fill="none" stroke="#000000" stroke-width="0.3" d="M194.235,96.581c0,0,0.156-0.261-1.094-0.886s-16.25-5.625-17.396-5.625
			s-16.25-1.771-16.25-1.771s-1.042,0.104-1.459,1.25c-0.416,1.146-1.666,5.313-1.666,5.313s-0.833,1.666,0.209,2.083
			c1.041,0.417,32.082,8.542,32.082,8.542s2.293,0.729,2.709-0.209"/>
		<polyline fill="none" stroke="#000000" stroke-width="0.3" points="176.474,90.278 174.704,98.716 173.245,98.195 175.12,89.966 
					"/>
		<path fill="none" stroke="#000000" stroke-width="0.3" d="M160.173,88.299c0,0-1.095,1.98-0.418,2.709
			c0.678,0.729,1.98,1.302,1.98,1.302l0.572,0.729l1.041,0.989l1.615,0.677l3.072,2.136l4.48,1.563c0,0,0.469,0.781,1.354,0.938
			s1.875-0.417,1.875-0.417s5.729,1.615,7.709,1.563c1.979-0.053,4.738-0.053,4.738-0.053l0.313,0.104"/>
		<path fill="none" stroke="#000000" stroke-width="0.3" d="M189.651,101.945c0,0-1.406,2.084-2.656,2.292
			c-1.25,0.207-3.334,0.313-4.271-1.303s0.21-2.083,1.824-2.447"/>
		<ellipse fill="none" stroke="#000000" stroke-width="0.3" cx="186.318" cy="102.96" rx="1.823" ry="1.172"/>
		<ellipse fill="none" stroke="#000000" stroke-width="0.3" cx="164.026" cy="97.31" rx="1.823" ry="1.172"/>
		<path fill="none" stroke="#000000" stroke-width="0.3" d="M178.245,90.852c0,0-0.886,3.332-0.365,3.697
			c0.521,0.365,1.459,0.052,1.771-0.625s0.729-2.604,0.729-2.604"/>
		<path fill="none" stroke="#000000" stroke-width="0.3" d="M181.474,91.736c0,0-1.875,4.791-0.416,5.313s1.927-0.104,2.135-1.354
			c0.209-1.25,0.521-3.281,0.521-3.281"/>
		<path fill="none" stroke="#000000" stroke-width="0.3" d="M177.88,82.31l-0.067,0.182l-1.651,4.454c0,0-0.415,2.136,0.887,1.875
			c1.301-0.261,2.604-1.303,2.604-1.303s-0.156-0.886,0.313-1.25s1.146-0.625,1.146-0.625l1.041-2.344l-1.041-0.104l-1.355,1.927
			l-1.406-0.104l0.781-2.239L177.88,82.31z"/>
		<path fill="none" stroke="#000000" stroke-width="0.3" d="M193.767,86.997l-1.199,2.917c0,0-1.094,2.188,0.469,2.396
			s2.813-1.146,2.813-1.146l0.469-1.511l1.094-0.573l0.73-1.719l-1.199,0.053l-0.676,1.041l-1.98-0.416l0.469-1.042l-1.145-0.208"/>
		<line fill="none" stroke="#000000" stroke-width="0.3" x1="181.267" y1="85.383" x2="193.401" y2="87.935"/>
		<line fill="none" stroke="#000000" stroke-width="0.3" x1="179.651" y1="87.518" x2="192.36" y2="90.539"/>
		<path fill="none" stroke="#000000" stroke-width="0.3" d="M195.849,91.164c0,0,6.952,1.252,10.702,0.367
			c0,0,0.184,0.414,1.485,1.039c1.303,0.625,3.281,2.031,3.281,2.031l-3.02,5c0,0-2.97,3.749,1.145,7.552
			c0,0,0.262,2.501,1.043,3.178c0.781,0.676,1.457,0.938,1.457,0.938l1.615-0.521c0,0,3.437,2.135,3.385,3.906l-0.156,0.678
			l-0.572,0.416l0.104,1.197"/>
		<ellipse fill="none" stroke="#000000" stroke-width="0.3" cx="204.6" cy="100.304" rx="1.302" ry="1.225"/>
		<ellipse fill="none" stroke="#000000" stroke-width="0.3" cx="206.318" cy="97.544" rx="1.979" ry="1.641"/>
		
			<ellipse transform="matrix(0.9462 0.3236 -0.3236 0.9462 41.9488 -62.1397)" fill="none" stroke="#000000" stroke-width="0.3" cx="207.829" cy="95.07" rx="1.328" ry="0.807"/>
		<path fill="none" stroke="#000000" stroke-width="0.3" d="M207.151,103.3c-3.541,0.781-6.094-3.074-6.094-3.074l3.072-2.187
			l0.313-1.928l1.668-1.979l-2.918,0.208l-1.197,2.292c0,0-4.378-1.508-6.147-0.414c0,0-1.25-1.25-1.769-1.565
			c-1.953-1.187-14.793-5.208-19.584-5.833s-14.375-1.667-14.375-1.667s-2.188,0.208-3.125,1.875s-2.084,6.354-2.084,6.354
			s-0.415,2.292,1.355,3.125c1.77,0.833,31.145,8.542,31.145,8.542s3.75,0.938,5.313-0.729"/>
		<path fill="none" stroke="#000000" stroke-width="0.3" d="M195.485,96.164c0,0,2.238-2.657,3.02-2.709s2.5,0.053,2.5,0.053
			s0.156-1.719-1.25-1.823"/>
		<line fill="none" stroke="#000000" stroke-width="0.3" x1="200.066" y1="96.297" x2="201.005" y2="93.508"/>
		<path fill="none" stroke="#000000" stroke-width="0.3" d="M222.724,114.966c0,0-4.688-1.095-6.25,0.416"/>
		<path fill="none" stroke="#000000" stroke-width="0.3" d="M203.87,84.653c0,0,3.126-0.416,4.115,0.104
			c0.988,0.521,1.719,1.771,1.719,1.771s2.812,0.156,3.332,1.771l3.959,2.188c0,0,2.291,3.021,1.563,5s-2.76,6.823-2.76,6.823
			s6.25,4.271,6.666,4.947"/>
		<path fill="none" stroke="#000000" stroke-width="0.3" d="M208.505,92.935c0,0-1.042-5.625,4.531-4.636"/>
		<path fill="none" stroke="#000000" stroke-width="0.3" d="M209.911,86.633c0,0-3.673,1.226-3.36,4.898"/>
		<polyline fill="none" stroke="#000000" stroke-width="0.3" points="197.673,88.611 200.067,89.185 200.12,88.455 201.995,89.028 
			203.192,89.028 204.235,88.352 		"/>
		<line fill="none" stroke="#000000" stroke-width="0.3" x1="203.298" y1="91.893" x2="203.192" y2="94.341"/>
		<path fill="none" stroke="#000000" stroke-width="0.3" d="M220.798,82.883l-5.105-0.678l-9.063-1.146l-3.697-0.313l0.469,1.042
			c0,0,0.834,4.271,0.834,6.563l2.447,1.302l-0.21,1.018c0,0-5.155,0.649-10.155-1.018"/>
		<path fill="none" stroke="#000000" stroke-width="0.3" d="M220.589,84.705l-14.01-2.708c0,0-1.668-0.156-2.918-0.052"/>
		<path fill="none" stroke="#000000" stroke-width="0.3" d="M200.12,88.455c0,0-6.172-4.739-12.891-6.38
			c0,0-4.297-1.328-8.828-2.109"/>
		<path fill="none" stroke="#000000" stroke-width="0.3" d="M196.526,88.013c0,0,1.821-0.388-14.844-5.469"/>
		<path fill="none" stroke="#000000" stroke-width="0.3" d="M176.161,86.945l-11.275-2.448c0,0-4.531,2.109-3.281-0.313
			l-2.578-0.703l-0.156-1.406l0.469-0.234l1.25-0.078l0.469-1.641l2.813-0.391l7.813-5.391c0,0,8.125,0.078,11.25,0.703
			c2.006,0.401,10.781,1.849,10.781,1.849c3.125,0.469,7.344,1.667,8.854,2.969c1.511,1.302-1.875,8.803-1.875,8.803"/>
		<line fill="none" stroke="#000000" stroke-width="0.3" x1="162.151" y1="74.341" x2="169.598" y2="75.75"/>
		<line fill="none" stroke="#000000" stroke-width="0.3" x1="160.667" y1="75.981" x2="167.308" y2="77.153"/>
		<polyline fill="none" stroke="#000000" stroke-width="0.3" points="164.651,84.575 164.964,83.169 166.604,82.466 166.683,80.903 
			166.136,80.903 164.729,82.075 163.87,81.763 164.026,80.747 162.698,80.513 161.917,81.841 161.917,82.856 161.604,84.185 		"/>
		<polyline fill="none" stroke="#000000" stroke-width="0.3" points="163.87,81.763 162.776,83.091 164.104,83.169 164.729,82.075 
					"/>
		<line fill="none" stroke="#000000" stroke-width="0.3" x1="166.604" y1="82.466" x2="176.761" y2="84.888"/>
		<path fill="none" stroke="#000000" stroke-width="0.3" d="M169.886,89.497v1.797l3.931,2.112l-7.759,1.403
			c0,0,1.016,1.172,1.953,1.172s5.859-0.469,5.859-0.469"/>
		<path fill="none" stroke="#000000" stroke-width="0.3" d="M175.589,94.419l1.953,1.875c0,0,0.703,0.547,0.859,0.938
			s1.953,1.797,1.953,1.797s0.313,0.547,0.859,0.547s1.875-0.781,2.5-0.469s1.719,0.313,1.719,0.313l2.969-0.391"/>
		<path fill="none" stroke="#000000" stroke-width="0.3" d="M185.042,93.013c0,0-1.797,4.609-0.781,5.391s2.344-0.078,2.422-1.172
			s0.469-3.75,0.469-3.75"/>
		<path fill="none" stroke="#000000" stroke-width="0.3" d="M163.349,94.028c0,0-3.932,1.875-2.369,4.063"/>
		<polyline fill="none" stroke="#000000" stroke-width="0.3" points="164.104,99.185 165.823,98.481 167.542,96.606 		"/>
		<polyline fill="none" stroke="#000000" stroke-width="0.3" points="173.401,93.247 164.964,93.638 163.167,92.778 170.979,91.997 
					"/>
		<path fill="none" stroke="#000000" stroke-width="0.3" d="M179.026,98.169l-3.281,0.234c0,0-0.703-0.938,0-1.094
			s2.656-0.078,2.656-0.078"/>
		<path fill="none" stroke="#000000" stroke-width="0.3" d="M159.026,83.481c0,0-0.469-0.156-0.547,1.016s-0.156,2.422-0.156,2.422
			l-0.234,0.938"/>
		<path fill="none" stroke="#000000" stroke-width="0.3" d="M195.589,94.341c0,0,2.838-2.578,4.166-2.656"/>
		<path fill="none" stroke="#000000" stroke-width="0.3" d="M201.058,79.731c0,0-0.781,4.609-1.641,6.25"/>
		<path fill="none" stroke="#000000" stroke-width="0.3" d="M175.979,79.731c0,0-9.609-0.625-12.109,0"/>
		<line fill="none" stroke="#000000" stroke-width="0.3" x1="174.026" y1="81.138" x2="166.136" y2="80.903"/>
		<polygon fill="none" stroke="#000000" stroke-width="0.3" points="173.401,75.356 174.417,78.325 183.558,76.45 181.683,75.903 
			176.214,77.075 175.589,75.122 		"/>
		<polygon fill="none" stroke="#000000" stroke-width="0.3" points="185.901,76.685 180.979,77.544 182.776,77.935 187.41,77.078 		
			"/>
		<path fill="none" stroke="#000000" stroke-width="0.3" d="M190.12,77.466h-1.406l-4.922,0.781c0,0,7.578,1.797,7.969,1.797
			s5.469-0.703,5.469-0.703L190.12,77.466z"/>
		<polygon fill="none" stroke="#000000" stroke-width="0.3" points="194.339,79.106 190.354,78.091 187.229,78.481 191.214,79.185 
					"/>
		<path fill="none" stroke="#000000" stroke-width="0.3" d="M177.854,74.341l2.5-2.188c0,0,5.078-2.422,6.641,3.75"/>
		<path fill="none" stroke="#000000" stroke-width="0.3" d="M192.62,76.685c0,0,1.094-3.438,4.766-2.422s4.297,2.656,4.297,2.656
			l-1.484,0.234v1.094l2.031,0.156v1.25"/>
		<path fill="none" stroke="#000000" stroke-width="0.3" d="M180.354,72.153c0.391-2.266,0.938-2.969,0.938-2.969l3.828-2.891
			c0,0,6.406-1.641,7.5,5.234l-0.078,1.719l0.156,2.813"/>
		<path fill="none" stroke="#000000" stroke-width="0.3" d="M187.698,75.825l3.672-3.672c0,0,1.641,0.391,1.172,1.094
			s-2.344,3.125-2.344,3.125"/>
		<path fill="none" stroke="#000000" stroke-width="0.3" d="M180.823,70.278c0,0,6.094-1.875,7.578,4.688"/>
		<path fill="none" stroke="#000000" stroke-width="0.3" d="M194.417,73.716c0,0,3.422-2.1,5.781-0.625
			c3.125,1.953,4.844,4.531,2.734,7.656"/>
		<path fill="none" stroke="#000000" stroke-width="0.3" d="M203.636,80.747l2.266-3.047v-1.406l0.547-0.938l0.469-1.953
			c-1.797-7.5-8.203-4.453-8.203-4.453s-1.953,1.563-2.656,2.266s-2.031,3.281-2.031,3.281"/>
		<path fill="none" stroke="#000000" stroke-width="0.3" d="M181.136,70.122c0,0,6.094-5.313,8.828,3.672"/>
		<path fill="none" stroke="#000000" stroke-width="0.3" d="M196.058,72.622c0,0,6.641-5.938,9.141,5.938"/>
		<path fill="none" stroke="#000000" stroke-width="0.3" d="M205.042,78.95c0,0,5.859-1.328,7.656,3.125"/>
		<path fill="none" stroke="#000000" stroke-width="0.3" d="M213.714,81.763l0.313-1.641c0,0-0.156-0.781-1.094-0.781
			s-3.438-0.156-3.438-0.156"/>
		<ellipse fill="none" stroke="#000000" stroke-width="0.3" cx="212.894" cy="80.63" rx="0.352" ry="0.43"/>
		<path fill="none" stroke="#000000" stroke-width="0.3" d="M206.448,75.356l1.641,0.234c0,0,2.266,0.313,2.422,1.328
			s0.234,1.563,0.234,1.563l0.781,0.781"/>
		<polyline fill="none" stroke="#000000" stroke-width="0.3" points="213.714,77.544 216.214,82.153 220.511,81.606 		"/>
		<polyline fill="none" stroke="#000000" stroke-width="0.3" points="206.839,73.716 208.558,73.794 210.511,74.653 211.448,74.575 
			213.948,77.856 220.901,73.56 		"/>
		<line fill="none" stroke="#000000" stroke-width="0.3" x1="221.292" y1="74.419" x2="214.729" y2="79.106"/>
		<polyline fill="none" stroke="#000000" stroke-width="0.3" points="209.183,74.028 209.417,72.31 209.183,71.216 205.979,70.825 
					"/>
		<path fill="none" stroke="#000000" stroke-width="0.3" d="M203.636,105.356c1.172-0.156,1.094,0,1.094,0l3.438,0.391"/>
		<path fill="none" stroke="#000000" stroke-width="0.3" d="M204.729,103.169l-1.641,0.313c0,0-1.797,0.078,0.547,1.875"/>
		<line fill="none" stroke="#000000" stroke-width="0.3" x1="219.729" y1="86.528" x2="217.151" y2="90.747"/>
		<path fill="none" stroke="#000000" stroke-width="0.3" d="M207.698,84.653l10.547,1.797c0,0,2.344,0.469,2.813,0.156
			s1.094-0.625,1.094-0.625"/>
		<ellipse fill="none" stroke="#000000" stroke-width="0.3" cx="207.034" cy="83.247" rx="0.43" ry="0.313"/>
		<polyline fill="none" stroke="#000000" stroke-width="0.3" points="213.948,85.747 214.026,86.685 215.667,89.185 215.823,90.044 
					"/>
		<line fill="none" stroke="#000000" stroke-width="0.3" x1="211.136" y1="86.919" x2="213.714" y2="86.685"/>
		<path fill="none" stroke="#000000" stroke-width="0.3" d="M211.37,92.466c0,0,0.442,0.678-0.053,2.136"/>
		<path fill="none" stroke="#000000" stroke-width="0.3" d="M188.167,93.95c0,0-1.641,4.297-0.234,5"/>
		<line fill="none" stroke="#000000" stroke-width="0.3" x1="199.183" y1="102.31" x2="208.368" y2="113.641"/>
	</g>
	<g>
		<path fill="none" stroke="#000000" stroke-width="0.3" d="M200.216,137.247l0.078,19.922l12.344,7.031v-0.781l25.469-6.797
			l0.781,0.313v-18.516l0.469-0.156v-1.328l-4.297-2.266c0,0,0-1.25-1.641-0.781l-0.625-0.313l-0.391-0.391l-3.281-1.719h-0.625
			l-1.563-0.781L200.216,137.247z"/>
		<path fill="none" stroke="#000000" stroke-width="0.3" d="M228.497,131.466l-10.156,2.422v1.25l3.75,2.109l10.469-2.617
			c0,0,0.273-0.703,0.547-0.82"/>
		<ellipse fill="none" stroke="#000000" stroke-width="0.3" cx="233.79" cy="134.454" rx="1.074" ry="0.645"/>
		<path fill="none" stroke="#000000" stroke-width="0.3" d="M232.716,134.454l0.039,1.777c0,0,0.352,0.234,1.133,0.234
			s1.133-0.273,1.133-0.273v-1.68"/>
		<ellipse fill="none" stroke="#000000" stroke-width="0.3" cx="229.884" cy="137.501" rx="1.621" ry="0.684"/>
		<path fill="none" stroke="#000000" stroke-width="0.3" d="M235.168,135.589c0.412,0.169,0.673,0.42,0.673,0.701
			c0,0.507-0.849,0.918-1.895,0.918s-1.895-0.411-1.895-0.918c0-0.236,0.185-0.451,0.488-0.615"/>
		<ellipse fill="none" stroke="#000000" stroke-width="0.3" cx="212.071" cy="139.923" rx="1.074" ry="0.645"/>
		<path fill="none" stroke="#000000" stroke-width="0.3" d="M210.997,139.923l0.039,1.777c0,0,0.352,0.234,1.133,0.234
			s1.133-0.273,1.133-0.273l-0.156-1.738"/>
		<path fill="none" stroke="#000000" stroke-width="0.3" d="M213.449,141.058c0.412,0.169,0.673,0.42,0.673,0.701
			c0,0.507-0.849,0.918-1.895,0.918s-1.895-0.411-1.895-0.918c0-0.236,0.185-0.451,0.488-0.615"/>
		<polyline fill="none" stroke="#000000" stroke-width="0.3" points="218.341,134.278 221.7,136.114 222.521,136.075 
			232.403,133.185 		"/>
		<line fill="none" stroke="#000000" stroke-width="0.3" x1="221.661" y1="137.052" x2="221.661" y2="135.958"/>
		<line fill="none" stroke="#000000" stroke-width="0.3" x1="222.521" y1="137.169" x2="222.521" y2="136.075"/>
		<polyline fill="none" stroke="#000000" stroke-width="0.3" points="213.731,139.591 219.435,138.067 219.435,136.739 
			216.036,134.747 215.099,134.786 205.06,137.403 205.06,138.692 208.771,140.606 209.239,140.606 210.606,140.294 		"/>
		<polyline fill="none" stroke="#000000" stroke-width="0.3" points="205.763,137.794 208.614,139.435 209.278,139.474 
			219.435,136.739 		"/>
		<polyline fill="none" stroke="#000000" stroke-width="0.3" points="200.216,137.755 211.974,144.083 212.989,144.239 
			239.356,136.935 		"/>
		<path fill="none" stroke="#000000" stroke-width="0.3" d="M200.177,139.591l11.484,6.211c0,0,0.977,0.195,1.367,0.195
			s25.742-6.875,25.742-6.875"/>
		<line fill="none" stroke="#000000" stroke-width="0.3" x1="212.638" y1="146.231" x2="212.638" y2="163.731"/>
		<line fill="none" stroke="#000000" stroke-width="0.3" x1="238.849" y1="152.872" x2="212.794" y2="159.747"/>
		<path fill="none" stroke="#000000" stroke-width="0.3" d="M200.216,138.81l11.797,6.094c0,0,0.547,0.156,1.406,0
			s25.469-6.484,25.469-6.484"/>
		<polygon fill="none" stroke="#000000" stroke-width="0.3" points="218.419,158.536 218.497,161.388 217.481,160.919 
			217.403,159.825 		"/>
		<polygon fill="none" stroke="#000000" stroke-width="0.3" points="233.38,154.786 233.458,157.638 232.442,157.169 
			232.364,156.075 		"/>
		<line fill="none" stroke="#000000" stroke-width="0.3" x1="218.302" y1="159.474" x2="232.364" y2="156.075"/>
		<line fill="none" stroke="#000000" stroke-width="0.3" x1="218.458" y1="160.411" x2="232.521" y2="157.013"/>
		<line fill="none" stroke="#000000" stroke-width="0.3" x1="233.38" y1="155.685" x2="238.81" y2="154.356"/>
		<line fill="none" stroke="#000000" stroke-width="0.3" x1="233.497" y1="156.817" x2="238.888" y2="155.411"/>
		<line fill="none" stroke="#000000" stroke-width="0.3" x1="217.56" y1="159.63" x2="212.599" y2="160.997"/>
		<line fill="none" stroke="#000000" stroke-width="0.3" x1="217.403" y1="160.646" x2="212.677" y2="161.935"/>
		<line fill="none" stroke="#000000" stroke-width="0.3" x1="187.795" y1="152.638" x2="210.92" y2="146.7"/>
	</g>
	<g>
		<path fill="none" stroke="#000000" stroke-width="0.3" d="M133.578,134.057c0.859-2.578,0.34-5.441,0.34-5.441
			c1.875-6.563,0.313-20.521,0.313-20.521s-2.292-7.082-7.813-8.541"/>
		<path fill="none" stroke="#000000" stroke-width="0.3" d="M131.73,124.969c0,0,0.52-9.584-2.709-10.938"/>
		<polyline fill="none" stroke="#000000" stroke-width="0.3" points="118.334,155.003 118.084,156.428 118.813,158.824 
			117.668,168.406 116.834,169.656 		"/>
		<line fill="none" stroke="#000000" stroke-width="0.3" x1="120.424" y1="143.116" x2="119.569" y2="147.973"/>
		<path fill="none" stroke="#000000" stroke-width="0.3" d="M132.875,132.053l1.043-3.438l-0.105-7.396
			c-2.084-11.667-5.416-6.145-6.77-4.895c-1.354,1.25-4.271,13.438-4.271,13.438l-0.939,5.336"/>
		<path fill="none" stroke="#000000" stroke-width="0.3" d="M131.985,156.006c-0.806,5.968-2.108,11.54-4.214,13.963"/>
		<path fill="none" stroke="#000000" stroke-width="0.3" d="M133.216,139.76c-0.071,2.371-0.209,5.546-0.474,8.969"/>
		<path fill="none" stroke="#000000" stroke-width="0.3" d="M133.396,139.24c0.01,0.342,0.017,0.587,0.021,0.752"/>
		<path fill="none" stroke="#000000" stroke-width="0.3" d="M126,118.512c0,0,2.916,0.207,4.688,3.854
			c1.072,2.207,1.801,6.59,2.231,10.514"/>
		<path fill="none" stroke="#000000" stroke-width="0.3" d="M123.052,148.986c0.036-1.015,0.088-2.051,0.157-3.104
			c0.078-1.182,0.176-2.339,0.291-3.466"/>
		<path fill="none" stroke="#000000" stroke-width="0.3" d="M130.969,155.682c-1.18,6.89-2.998,11.563-4.734,11.447
			c-1.679-0.11-2.843-4.664-3.155-11.272"/>
		<path fill="none" stroke="#000000" stroke-width="0.3" d="M124.779,134.029c1.157-5.415,2.725-8.91,4.229-8.811
			c1.342,0.09,2.354,3.021,2.865,7.574"/>
		<line fill="none" stroke="#000000" stroke-width="0.3" x1="113.709" y1="170.074" x2="118.709" y2="159.553"/>
		<line fill="none" stroke="#000000" stroke-width="0.3" x1="107.459" y1="170.387" x2="118.084" y2="156.428"/>
		<path fill="none" stroke="#000000" stroke-width="0.3" d="M116.421,134.685l0.622-7.319c0,0-0.625-18.854-8.646-23.438
			l-10.938,1.875c0,0,1.354,5.938,4.063,7.813c2.708,1.875,9.479,7.5,9.479,7.5s4.376,3.959,4.793,5.938"/>
		<path fill="none" stroke="#000000" stroke-width="0.3" d="M114.104,147.959c0.543-2.113,1.013-4.164,1.349-5.699"/>
		<path fill="none" stroke="#000000" stroke-width="0.3" d="M104.438,169.553c0,0,5.313-9.168,7.396-14.271
			c0.1-0.244,0.2-0.5,0.299-0.768"/>
		<path fill="none" stroke="#000000" stroke-width="0.3" d="M116.184,154.756c-0.712,2.804-1.563,5.299-2.579,7.193l-2.5-0.521
			l0.417-2.291l0.521-0.313l1.379-3.908"/>
		<path fill="none" stroke="#000000" stroke-width="0.3" d="M118.309,142.955c-0.219,1.716-0.471,3.453-0.757,5.162"/>
		<path fill="none" stroke="#000000" stroke-width="0.3" d="M109.959,99.137l-3.125,1.77c0,0,13.645,6.146,12.916,23.75
			c0,0-0.112,4.215-0.58,9.943"/>
		<line fill="none" stroke="#000000" stroke-width="0.3" x1="108.292" y1="162.678" x2="111.521" y2="159.137"/>
		<line fill="none" stroke="#000000" stroke-width="0.3" x1="105.167" y1="170.178" x2="111.834" y2="161.531"/>
		<polyline fill="none" stroke="#000000" stroke-width="0.3" points="106,104.449 106.834,100.906 100.688,101.844 104.75,98.719 		
			"/>
		<path fill="none" stroke="#000000" stroke-width="0.3" d="M124.543,100.594c0,0-4.584,2.293-3.334,14.896"/>
		<path fill="none" stroke="#000000" stroke-width="0.3" d="M90.688,106.166c0,0,4.219,8.75,4.219,12.031
			s-5.156,32.188-5.156,32.188s-1.094,9.844-2.813,12.5s-7.813,7.813-7.813,7.813"/>
		<path fill="none" stroke="#000000" stroke-width="0.3" d="M74.125,170.385l6.563-5.313l4.063-23.125c0,0,0.938-1.563,2.656-3.594
			s1.719-3.594,1.719-3.594s1.719-12.188,1.406-15.469s-3.438-14.531-3.438-14.531"/>
		<path fill="none" stroke="#000000" stroke-width="0.3" d="M100.531,120.072c0,0-7.813,42.188-9.531,45.469
			s-1.719,3.281-1.719,3.281s4.844-3.438,6.094-8.125"/>
		<path fill="none" stroke="#000000" stroke-width="0.3" d="M98.813,144.447l2.969-18.281c0,0-0.313-4.063-0.469-5.313"/>
		<ellipse fill="none" stroke="#000000" stroke-width="0.3" cx="101.508" cy="145.541" rx="1.445" ry="1.797"/>
		<ellipse fill="none" stroke="#000000" stroke-width="0.3" cx="101.313" cy="145.619" rx="0.796" ry="0.781"/>
		<ellipse fill="none" stroke="#000000" stroke-width="0.3" cx="104.359" cy="121.869" rx="1.445" ry="1.797"/>
		<ellipse fill="none" stroke="#000000" stroke-width="0.3" cx="104.164" cy="121.947" rx="0.796" ry="0.781"/>
		<ellipse fill="none" stroke="#000000" stroke-width="0.3" cx="103.07" cy="107.494" rx="1.445" ry="1.797"/>
		<ellipse fill="none" stroke="#000000" stroke-width="0.3" cx="102.875" cy="107.572" rx="0.796" ry="0.781"/>
		<ellipse fill="none" stroke="#000000" stroke-width="0.3" cx="91.977" cy="116.674" rx="1.25" ry="1.68"/>
		<ellipse fill="none" stroke="#000000" stroke-width="0.3" cx="91.808" cy="116.748" rx="0.688" ry="0.729"/>
		<ellipse fill="none" stroke="#000000" stroke-width="0.3" cx="108.891" cy="131.479" rx="0.796" ry="0.781"/>
		<ellipse fill="none" stroke="#000000" stroke-width="0.3" cx="108.5" cy="136.01" rx="0.796" ry="0.781"/>
		<ellipse fill="none" stroke="#000000" stroke-width="0.3" cx="109.906" cy="133.549" rx="0.522" ry="0.416"/>
		<ellipse fill="none" stroke="#000000" stroke-width="0.3" cx="106.078" cy="133.041" rx="0.522" ry="0.416"/>
		<path fill="none" stroke="#000000" stroke-width="0.3" d="M107.094,131.166l0.313-1.25c0,0,0.625-0.625,1.25-0.625
			s2.422,0.156,2.422,0.156s0.625,0.547,0.625,1.406s0,0.859,0,0.859s1.328-0.078,1.328,1.875s-0.938,2.422-0.938,2.422
			l-0.703,0.469L111,137.65c0,0-0.547,0.859-1.016,0.859s-2.5,0.078-2.5,0.078l-0.469-0.547l-0.234-0.859v-1.172L106,135.854
			c0,0-0.313-1.094-0.313-1.406s-0.234-1.094-0.234-1.094s-0.391-0.313,0.078-0.625s0.469-0.313,0.469-0.313L107.094,131.166z"/>
		<path fill="none" stroke="#000000" stroke-width="0.3" d="M107.406,129.916l2.734,0.313c0,0,0.469,0.156,0.469,0.469
			s0,1.25,0,1.25l0.391,0.469c0,0,0.703,0.078,0.703,0.938s-0.156,1.406-0.391,1.641s-1.094,0.859-1.094,0.859l-0.234,0.625
			l-0.156,0.938l-3.047-0.234"/>
		<path fill="none" stroke="#000000" stroke-width="0.3" d="M106.469,131.947l3.594,0.859c0,0,0.859-0.234,0.859,0.625
			s0.078,1.094-0.781,1.25s-3.281-0.078-3.281-0.078l-0.078-0.391l-1.094,0.234l3.594-0.625"/>
		<line fill="none" stroke="#000000" stroke-width="0.3" x1="91.729" y1="108.614" x2="97.458" y2="106.219"/>
		<path fill="none" stroke="#000000" stroke-width="0.3" d="M84.021,145.281l-0.416-7.292l-1.146-0.521v-0.729l0.729-0.417v-0.938
			c0,0-0.833-0.626-2.188-0.521c-1.354,0.104-2.5,0.938-2.5,0.938v3.333l1.563,1.042l0.313,5.208l-0.313,0.938l-0.417,14.896
			l5.104-19.271"/>
		<path fill="none" stroke="#000000" stroke-width="0.3" d="M82.979,137.677l-2.396,0.104c0,0-1.25,0.416-1.563,1.666"/>
		<ellipse fill="none" stroke="#000000" stroke-width="0.3" cx="82.354" cy="140.646" rx="0.417" ry="0.885"/>
		<path fill="none" stroke="#000000" stroke-width="0.3" d="M79.542,135.177l-0.104,3.125l0.521-0.417c0,0,0.834-0.208,0.834,0.625
			c0,0.834,0.208,6.354,0.208,6.354l3.125-0.521"/>
		<polyline fill="none" stroke="#000000" stroke-width="0.3" points="80.063,146.322 82.875,145.802 83.5,144.447 		"/>
		<line fill="none" stroke="#000000" stroke-width="0.3" x1="83.083" y1="147.989" x2="82.875" y2="145.802"/>
		<path fill="none" stroke="#000000" stroke-width="0.3" d="M81.625,135.177c0,0,0.937-8.75,2.396-10.938
			c1.459-2.188,3.854-8.229,3.854-8.229s0.208-1.25-0.313-1.875c0,0-3.021-10.623-5.104-13.229"/>
		<path fill="none" stroke="#000000" stroke-width="0.3" d="M86.938,138.51c0,0,0.104-9.792,0.417-11.771
			c0.313-1.979,1.041-6.667,1.041-6.667s0.729-3.645-0.521-4.791"/>
		<path fill="none" stroke="#000000" stroke-width="0.3" d="M74.958,120.281c0,0,0.417,3.749,2.084,7.083
			c1.666,3.333,1.666,6.458,1.666,6.458"/>
		<path fill="none" stroke="#000000" stroke-width="0.3" d="M80.479,129.864c0,0,1.875-5.521,1.563-10.208s-0.104-7.084-0.104-7.084
			s2.292-5.729-1.146-11.041"/>
		<line fill="none" stroke="#000000" stroke-width="0.3" x1="147.822" y1="132.887" x2="106.313" y2="141.479"/>
		<line fill="none" stroke="#000000" stroke-width="0.3" x1="146.156" y1="152.104" x2="105.063" y2="150.854"/>
	</g>
	<g>
		<path fill="none" stroke="#000000" stroke-width="0.3" d="M27.823,151.525c-3.736-7.924-5.003-12.712-6.698-17.025
			c-2.75-7-1.625-16-1.625-16c2-9.875,11.125-10.75,11.125-10.75s15.25-1.125,27.375-4.25"/>
		<path fill="none" stroke="#000000" stroke-width="0.3" d="M58.625,166.375c0,0-17.75,4.625-18.75,4.625s-1.5-0.375-1.5-0.375
			c-4.941-8.012-5.923-9.314-8.25-14.25"/>
		<path fill="none" stroke="#000000" stroke-width="0.3" d="M31.75,155.75c2.375,4.944,3.175,6.066,6.75,12.25
			c0,0,0.75,1.25,1.75,1.125s15.375-3.875,15.375-3.875l2,0.875l-9-3.25c0,0-8.5-0.5-12.25-9.625"/>
		<path fill="none" stroke="#000000" stroke-width="0.3" d="M29.647,151.417c-3.771-7.849-6.21-14.407-7.897-20.542
			C19,120.875,22.375,115,22.375,115c2.625-5.875,8.125-5.875,8.125-5.875l7.125,3.5L38.25,112l5.5-1.25h1.375l8.25-1.5l1.25-0.75
			l4.125-1.125"/>
		<path fill="none" stroke="#000000" stroke-width="0.3" d="M45.5,144.75l5.875,14c0,0,4.375,8.125,8,7.25"/>
		<path fill="none" stroke="#000000" stroke-width="0.3" d="M30.5,109.125c0,0-8.375,2.5-6.875,16.125c0,0,3.527,17.515,7.843,24.73
			"/>
		<path fill="none" stroke="#000000" stroke-width="0.3" d="M50.625,106l-10.5,1.375c0,0-1.875,0.375,0,1.25s3,1,5,1s7-1.5,7-1.5
			s1.625-1,0.75-1.75S51.625,105.75,50.625,106z"/>
		<path fill="none" stroke="#000000" stroke-width="0.3" d="M41,111.625l0.375,2.125c0,0,1,0.125,2.125,0.5s0.5,1.375,0.5,1.375
			C42.875,120.5,39.25,123,39.25,123l-10,3c0,0-4.037,0.116-3.375,4.5c1,6.625,6.25,17.625,6.25,17.625l0.365,1.23"/>
		<path fill="none" stroke="#000000" stroke-width="0.3" d="M36.25,111.75c0,0-0.5,2.25,0.25,2.625s1.25,0.25,1.25,0.25l-0.125-2"/>
		<path fill="none" stroke="#000000" stroke-width="0.3" d="M38.938,111.875c0,0-0.188,2.875-3.188,5.5c0,0-2.375,1.625-1.75,2.375
			s1.375,1.375,1.375,1.375L38,122.25l0.5,0.375c0,0,2.25-1.438,2.813-2.938s1.625-3.375,1.625-3.375s0.813-1.188-0.563-1.563
			s-2.063-0.938-2.063-0.938l-0.625-1.5L38.938,111.875z"/>
		<path fill="none" stroke="#000000" stroke-width="0.3" d="M28,126.25c0,0-1.25,1-0.125,4.625
			c0.765,2.464,4.417,11.915,6.678,17.717"/>
		<path fill="none" stroke="#000000" stroke-width="0.3" d="M44.375,140.938c1.313,0,1.5-0.688,2.125-1.188s0.875,0.563,0.875,0.563
			s0.875,0.125,1.75,0.438s0.688,0.125,1.563-0.625s0.875,0.125,1.438,0.938s0.125,1.063-0.438,1.688s-2-0.188-2.313-0.313
			s-1,0.438-1,0.438s-1.25,1.375-1.875,1.75S44.188,144,44.188,144s-6.625-3.125-7.813-3.688s-0.813-1.438-0.813-1.438
			s-0.25-0.563-0.375-0.875s0.5-0.688,0.5-0.688c1.313,0,1.563,1.938,1.563,1.938c1.625,1.375,6.875,1.75,6.875,1.75l-2.75-8.125
			L40.5,129.5l3.125,0.938c0,0,0.438,2.688,1.625,4.25s3.563,5.5,3.563,5.5"/>
		
			<ellipse transform="matrix(0.7844 -0.6202 0.6202 0.7844 -70.6711 50.242)" fill="none" stroke="#000000" stroke-width="0.3" cx="36.938" cy="126.781" rx="0.375" ry="0.531"/>
		
			<ellipse transform="matrix(0.7844 -0.6202 0.6202 0.7844 -68.8536 50.7834)" fill="none" stroke="#000000" stroke-width="0.3" cx="38.625" cy="124.438" rx="0.375" ry="0.531"/>
		
			<ellipse transform="matrix(0.7844 -0.6202 0.6202 0.7844 -65.8349 49.3431)" fill="none" stroke="#000000" stroke-width="0.3" cx="38.063" cy="119.375" rx="0.375" ry="0.531"/>
		
			<ellipse transform="matrix(0.7844 -0.6202 0.6202 0.7844 -63.2195 49.8678)" fill="none" stroke="#000000" stroke-width="0.3" cx="40.125" cy="115.875" rx="0.375" ry="0.531"/>
		
			<ellipse transform="matrix(0.7844 -0.6202 0.6202 0.7844 -61.6758 57.934)" fill="none" stroke="#000000" stroke-width="0.3" cx="52.5" cy="117.688" rx="0.375" ry="0.531"/>
		
			<ellipse transform="matrix(0.7621 -0.6474 0.6474 0.7621 -83.3201 59.0422)" fill="none" stroke="#000000" stroke-width="0.3" cx="38.687" cy="142.906" rx="0.709" ry="1.114"/>
		
			<ellipse transform="matrix(0.7621 -0.6474 0.6474 0.7621 -82.6326 55.8509)" fill="none" stroke="#000000" stroke-width="0.3" cx="34.688" cy="140.375" rx="0.709" ry="1.114"/>
		
			<ellipse transform="matrix(0.7844 -0.6202 0.6202 0.7844 -70.6614 48.4573)" fill="none" stroke="#000000" stroke-width="0.3" cx="34.375" cy="125.875" rx="0.375" ry="0.531"/>
		
			<ellipse transform="matrix(0.7844 -0.6202 0.6202 0.7844 -72.2097 46.1279)" fill="none" stroke="#000000" stroke-width="0.3" cx="30.25" cy="126.938" rx="0.375" ry="0.531"/>
		
			<ellipse transform="matrix(0.7844 -0.6202 0.6202 0.7844 -73.4112 45.5462)" fill="none" stroke="#000000" stroke-width="0.3" cx="28.813" cy="128.375" rx="0.375" ry="0.531"/>
		
			<ellipse transform="matrix(0.7844 -0.6202 0.6202 0.7844 -74.9214 46.2014)" fill="none" stroke="#000000" stroke-width="0.3" cx="29" cy="130.875" rx="0.375" ry="0.531"/>
		
			<ellipse transform="matrix(0.7844 -0.6202 0.6202 0.7844 -78.5302 49.1937)" fill="none" stroke="#000000" stroke-width="0.3" cx="31.5" cy="137.563" rx="0.375" ry="0.531"/>
		
			<ellipse transform="matrix(0.5171 -0.8559 0.8559 0.5171 -115.7081 113.0121)" fill="none" stroke="#000000" stroke-width="0.3" cx="42.303" cy="159.053" rx="0.164" ry="0.529"/>
		
			<ellipse transform="matrix(0.7848 -0.6198 0.6198 0.7848 -74.6637 49.7349)" fill="none" stroke="#000000" stroke-width="0.3" cx="34.281" cy="132.375" rx="0.399" ry="0.824"/>
		
			<ellipse transform="matrix(0.7848 -0.6198 0.6198 0.7848 -83.1392 60.4114)" fill="none" stroke="#000000" stroke-width="0.3" cx="45.417" cy="149.917" rx="0.399" ry="0.824"/>
		<path fill="none" stroke="#000000" stroke-width="0.3" d="M43.625,130.438C42.688,126.563,44,115.625,44,115.625
			s0.563,0.938,1.313,0.625s4.5-1.25,4.5-1.25s0.688,0.313,1.25,0.188s1.188-1.063,1.188-1.063l2.625,2c0,0-0.188-0.313-0.938,1.125
			s-1.125,2.438-0.938,3.563s0.313,1.625,0.313,1.625l0.625,0.125c0,0,1.188-0.063,1.375,0.625s2.688,7.75,3.063,12.313"/>
		<path fill="none" stroke="#000000" stroke-width="0.3" d="M58,144.083L47.333,128.5c0,0-2.084-3.333-0.917-8.5l1.917-4.75"/>
		
			<ellipse transform="matrix(-0.8909 -0.4542 0.4542 -0.8909 55.4444 232.6531)" fill="none" stroke="#000000" stroke-width="0.3" cx="55.667" cy="109.667" rx="0.458" ry="0.75"/>
		<line fill="none" stroke="#000000" stroke-width="0.3" x1="58.833" y1="115.167" x2="54.875" y2="116.125"/>
		<polyline fill="none" stroke="#000000" stroke-width="0.3" points="58.75,110.333 52.917,111.917 52.25,114.125 58.667,112.333 		
			"/>
		<path fill="none" stroke="#000000" stroke-width="0.3" d="M49.813,115L49,117.5c0,0-0.667,1.667-0.083,3.167
			s8.583,16.582,9.833,16.916"/>
		<path fill="none" stroke="#000000" stroke-width="0.3" d="M48.375,142.875c0,0,9.208,13.125,10.458,14.375"/>
		<path fill="none" stroke="#000000" stroke-width="0.3" d="M41,131.833c0,0,2.917,5.75,5.5,7.917"/>
		<line fill="none" stroke="#000000" stroke-width="0.3" x1="50.917" y1="143.083" x2="58.5" y2="153.833"/>
		<line fill="none" stroke="#000000" stroke-width="0.3" x1="23.25" y1="155.688" x2="37.625" y2="150.563"/>
	</g>
</g>
</svg>
